<mxfile host="app.diagrams.net" modified="2023-11-05T14:29:11.818Z" agent="Mozilla/5.0 (Windows NT 10.0; Win64; x64) AppleWebKit/537.36 (KHTML, like Gecko) Chrome/119.0.0.0 Safari/537.36 Edg/119.0.0.0" version="22.0.8" etag="WS5ZPdchkFZd1A98M00p" type="github">
  <diagram name="Page-1" id="izjDjoYw4JE_6SGp5nmJ">
    <mxGraphModel>
      <root>
        <mxCell id="0" />
        <mxCell id="1" parent="0" />
      </root>
    </mxGraphModel>
  </diagram>
</mxfile>
